<?xml version="1.0" standalone="no"?>
<!DOCTYPE svg PUBLIC "-//W3C//DTD SVG 20010904//EN"
 "http://www.w3.org/TR/2001/REC-SVG-20010904/DTD/svg10.dtd">
<svg version="1.0" xmlns="http://www.w3.org/2000/svg"
 width="400.000000pt" height="400.000000pt" viewBox="0 0 400.000000 400.000000"
 preserveAspectRatio="xMidYMid meet">
<metadata>
Created by potrace 1.11, written by Peter Selinger 2001-2013
</metadata>
<g transform="translate(0.000000,400.000000) scale(0.100000,-0.100000)"
fill="#000000" stroke="none">
<path d="M2190 3193 c-39 -17 -85 -24 -145 -23 -178 4 -222 6 -232 13 -6 4
-30 5 -52 1 -46 -7 -71 -28 -53 -46 8 -8 25 -6 63 6 50 17 54 17 65 1 11 -14
18 -15 46 -6 21 7 59 8 105 3 41 -5 79 -4 88 1 9 5 27 6 40 3 13 -3 27 -2 30
4 3 5 13 10 21 10 17 0 19 -20 2 -20 -7 -1 -31 -16 -53 -35 -49 -43 -26 -48
41 -9 46 27 84 71 84 98 0 19 -4 19 -50 -1z"/>
<path d="M1458 3195 c-2 -3 -41 -7 -85 -10 -44 -3 -95 -10 -114 -15 -19 -6
-51 -10 -71 -10 -20 0 -40 -4 -43 -10 -3 -5 -18 -10 -33 -10 -20 0 -23 -3 -14
-12 9 -9 19 -9 45 0 40 14 74 15 82 3 6 -10 1 -12 -147 -51 -64 -17 -89 -28
-93 -41 -7 -22 -31 -25 -50 -5 -13 12 -8 17 32 38 61 30 70 51 14 34 -22 -6
-43 -15 -47 -19 -4 -4 -15 -7 -25 -7 -10 0 -41 -13 -69 -30 -28 -16 -54 -30
-59 -30 -4 0 -31 -20 -60 -45 -29 -25 -58 -48 -65 -52 -15 -9 -71 -116 -81
-153 -6 -21 -3 -20 14 8 12 18 28 35 36 39 10 3 13 12 10 24 -11 33 139 158
227 190 79 28 48 -22 -37 -60 -37 -17 -77 -51 -60 -51 4 0 2 -7 -5 -15 -11
-13 -15 -13 -22 -3 -6 10 -16 5 -38 -20 -17 -18 -30 -40 -30 -50 0 -9 -9 -23
-19 -29 -18 -11 -31 -42 -45 -105 -7 -33 -26 -38 -26 -7 0 12 -4 18 -11 13
-13 -8 -5 -143 10 -171 5 -10 12 -26 15 -35 3 -11 15 -16 37 -16 34 1 68 -31
69 -64 0 -10 5 -18 10 -18 6 0 10 -7 10 -15 0 -8 -4 -15 -10 -15 -5 0 -10 4
-10 9 0 14 -66 82 -73 75 -28 -28 136 -191 242 -240 40 -19 81 -34 90 -34 9 0
21 -4 27 -8 5 -5 36 -19 69 -32 33 -12 78 -30 100 -41 22 -10 63 -28 92 -41
37 -16 51 -27 48 -39 -3 -8 6 -25 21 -38 19 -17 23 -26 15 -34 -15 -15 -14
-27 4 -27 11 0 13 -8 9 -30 -5 -25 -1 -34 25 -57 17 -15 31 -37 31 -49 0 -12
3 -24 8 -26 4 -2 27 -28 52 -58 54 -66 101 -109 117 -110 7 0 16 -6 20 -13 4
-6 26 -18 48 -26 22 -8 51 -23 65 -33 24 -19 25 -24 25 -141 0 -82 4 -130 13
-145 15 -25 33 -148 36 -232 1 -50 4 -56 35 -77 19 -13 41 -23 50 -23 13 1 12
3 -3 12 -37 21 -66 52 -66 70 0 25 12 23 38 -7 13 -14 34 -30 48 -35 22 -9 23
-12 13 -31 -11 -21 -10 -22 21 -16 22 5 36 2 47 -8 19 -19 33 -19 33 0 0 8 -9
15 -19 15 -10 0 -21 7 -25 15 -7 19 13 19 38 0 24 -18 85 -19 109 -1 25 19 21
26 -17 26 -18 0 -48 5 -67 11 -106 34 -110 40 -95 137 13 77 33 94 38 30 4
-58 32 -60 36 -3 2 22 11 48 19 57 17 19 11 24 -37 30 -25 3 -25 4 -30 120 -4
93 -9 121 -22 135 -26 25 -31 10 -14 -41 19 -54 15 -248 -5 -272 -6 -8 -9 -27
-6 -42 3 -15 2 -34 -2 -40 -8 -13 7 -86 23 -112 8 -13 7 -13 -10 0 -10 9 -32
22 -47 30 -16 8 -35 27 -43 42 -14 27 -13 29 11 38 30 11 34 40 5 40 -11 0
-20 5 -20 10 0 6 7 10 15 10 17 0 19 12 5 26 -8 8 -6 15 5 24 22 18 19 28 -12
32 -22 2 -29 9 -31 30 -2 15 2 36 7 47 6 11 8 28 4 38 -6 16 -8 15 -13 -6 -3
-14 -11 -26 -17 -28 -7 -3 -9 4 -6 16 3 12 0 28 -7 36 -12 15 -5 39 10 30 5
-3 10 7 12 22 2 20 9 29 26 31 14 2 27 14 34 30 18 48 41 87 55 95 7 4 13 21
13 37 0 36 22 120 31 120 4 0 12 -15 19 -32 6 -18 20 -53 30 -78 10 -25 29
-72 42 -105 22 -56 26 -60 60 -63 l35 -3 31 78 c17 43 37 97 45 121 7 24 21
52 30 62 8 10 17 29 19 42 2 17 9 22 26 21 30 -4 85 25 76 39 -4 6 -21 8 -40
5 l-34 -6 2 41 c3 40 1 42 -31 52 -23 7 -39 6 -52 -2 -10 -7 -25 -12 -32 -12
-14 0 -80 32 -100 49 -8 6 -18 6 -27 1 -8 -5 -24 -3 -41 6 -16 8 -33 14 -39
14 -21 0 -110 75 -107 90 1 8 16 17 32 20 22 4 30 11 31 28 1 16 -4 22 -19 22
-20 0 -21 0 -1 -15 18 -14 18 -14 -5 -15 -34 0 -101 -31 -101 -47 0 -25 -43
-13 -70 19 -25 30 -30 31 -54 20 -33 -15 -33 -23 0 -62 22 -26 33 -30 65 -28
26 1 45 -4 59 -17 21 -19 27 -45 10 -45 -5 0 -10 5 -10 10 0 6 -4 10 -10 10
-19 0 -10 -15 23 -37 47 -32 60 -30 52 8 -6 26 -4 30 11 27 14 -2 21 -17 27
-50 8 -42 6 -55 -23 -115 -17 -38 -38 -88 -47 -113 -20 -60 -31 -69 -38 -34
-3 16 -10 40 -14 54 -5 14 -22 64 -37 112 -30 93 -35 98 -106 98 -34 0 -38 -3
-38 -25 0 -15 -6 -25 -14 -25 -7 0 -19 -7 -27 -16 -12 -14 -14 -14 -26 2 -18
24 -17 48 2 40 21 -8 52 52 35 68 -9 8 -18 3 -39 -21 -27 -33 -61 -44 -61 -21
0 7 12 22 28 34 15 12 24 26 19 30 -4 4 -13 2 -19 -4 -15 -15 -88 -16 -88 -2
0 6 8 10 18 10 10 0 31 14 47 30 16 17 23 30 17 30 -7 0 -12 7 -12 15 0 8 7
15 16 15 9 0 12 -5 8 -11 -4 -7 -1 -10 7 -7 8 3 14 11 15 19 0 8 4 22 9 32 7
16 9 16 31 2 22 -14 28 -14 78 10 29 14 66 25 82 25 28 1 28 1 9 15 -12 10
-30 13 -52 9 -41 -8 -44 10 -8 48 27 29 32 50 13 47 -25 -3 -48 1 -48 9 0 4
33 7 73 8 39 0 82 4 95 8 19 7 21 6 15 -10 -3 -11 -11 -22 -17 -26 -8 -5 -8
-8 0 -8 6 0 17 7 24 15 9 11 23 14 49 9 20 -4 38 -10 41 -13 3 -4 19 -13 35
-21 17 -8 33 -16 37 -18 3 -2 5 12 5 30 -2 35 -3 35 65 21 21 -4 27 -10 25
-27 -2 -18 4 -21 42 -24 25 -2 54 -10 65 -18 11 -8 39 -14 63 -14 26 0 48 -6
58 -17 14 -13 21 -14 36 -5 11 7 20 8 24 2 3 -6 16 -10 28 -10 16 0 18 3 8 9
-8 5 -9 11 -3 15 6 4 15 -1 20 -10 7 -13 13 -14 31 -4 17 8 26 8 36 0 9 -7 15
-8 20 0 12 19 45 11 55 -15 5 -14 15 -25 21 -25 7 0 21 -8 32 -17 18 -17 19
-17 28 0 10 16 12 16 36 -3 14 -11 35 -20 46 -20 19 0 19 2 -7 29 -21 22 -27
36 -23 53 4 13 0 29 -9 40 -11 12 -15 31 -12 62 2 26 1 46 -2 46 -3 0 -27 -12
-54 -26 -42 -22 -65 -27 -147 -29 -74 -3 -101 0 -109 10 -6 8 -33 17 -58 20
-26 4 -67 13 -92 20 -25 8 -61 16 -80 18 -19 3 -55 13 -80 22 -76 28 -435 37
-490 12 -19 -8 -47 -18 -62 -21 -15 -3 -33 -13 -42 -21 -8 -8 -19 -15 -24 -15
-5 0 -17 -9 -27 -21 -15 -15 -27 -19 -55 -15 -19 3 -64 8 -100 11 -63 6 -121
16 -205 37 -42 10 -189 81 -216 104 -8 8 -23 14 -31 14 -9 0 -30 23 -47 50
-17 28 -35 50 -40 50 -4 0 -21 18 -36 40 -26 37 -27 45 -22 108 10 107 24 140
85 205 61 64 162 140 202 152 13 4 36 16 50 25 14 10 43 21 65 25 22 4 49 12
60 18 11 5 42 12 70 14 114 7 165 17 156 31 -5 9 -27 14 -61 14 -48 -1 -51 0
-37 16 26 29 117 12 117 -22 0 -10 25 -15 98 -19 131 -8 242 -22 332 -44 72
-17 212 -24 225 -12 3 3 2 14 -1 23 -5 12 -13 16 -28 11 -11 -3 -44 -8 -72
-12 -45 -5 -53 -3 -66 16 -13 18 -17 19 -27 7 -11 -13 -18 -13 -53 0 -22 8
-53 14 -67 14 -15 0 -32 5 -37 10 -6 6 -71 13 -144 16 -134 5 -150 8 -150 23
0 17 254 35 282 20 17 -9 36 6 24 18 -8 8 -221 15 -228 8z m-858 -567 c0 -16
-3 -19 -11 -11 -6 6 -8 16 -5 22 11 17 16 13 16 -11z m32 -75 c21 -19 24 -43
4 -43 -8 0 -19 14 -25 30 -11 34 -6 38 21 13z m147 -198 c17 -30 35 -55 40
-55 5 0 11 -7 14 -15 5 -11 1 -12 -19 -5 -32 13 -96 77 -84 85 6 3 10 15 10
26 0 29 5 24 39 -36z m1101 -75 c11 -6 12 -12 4 -20 -13 -13 -44 -2 -44 16 0
16 18 18 40 4z m-363 -36 c-3 -3 -12 -4 -19 -1 -8 3 -5 6 6 6 11 1 17 -2 13
-5z m-597 -14 c0 -5 -2 -10 -4 -10 -3 0 -8 5 -11 10 -3 6 -1 10 4 10 6 0 11
-4 11 -10z m124 -16 c14 -36 -29 -47 -58 -15 -17 19 -17 20 6 24 42 8 46 7 52
-9z m571 -4 c-3 -5 -13 -10 -21 -10 -8 0 -14 5 -14 10 0 6 9 10 21 10 11 0 17
-4 14 -10z m749 -25 c3 -10 -1 -15 -13 -15 -26 0 -51 10 -51 21 0 15 57 10 64
-6z m-1184 -28 c0 -11 9 -21 20 -24 19 -5 29 -23 12 -23 -16 0 -107 33 -117
42 -14 13 7 23 49 23 28 0 36 -4 36 -18z m187 6 c4 -12 -25 -26 -38 -18 -11 7
12 35 25 31 6 -1 11 -7 13 -13z m1173 7 c0 -5 -2 -10 -4 -10 -3 0 -8 5 -11 10
-3 6 -1 10 4 10 6 0 11 -4 11 -10z m-986 -9 c6 -10 -76 -81 -93 -81 -12 0 -14
29 -3 46 8 13 61 41 79 43 6 1 14 -3 17 -8z m-114 -26 c0 -8 -7 -15 -15 -15
-26 0 -18 20 13 29 1 1 2 -6 2 -14z m-60 -44 c0 -17 -4 -33 -10 -36 -5 -3 -10
-2 -10 4 0 5 -15 11 -32 13 -47 4 -51 35 -6 41 18 2 39 5 46 5 7 1 12 -10 12
-27z m63 -81 c-33 -31 -43 -36 -43 -22 0 15 41 52 58 52 13 0 9 -8 -15 -30z
m-76 -16 c-3 -3 -12 -4 -19 -1 -8 3 -5 6 6 6 11 1 17 -2 13 -5z m483 -9 c20
-24 -1 -38 -28 -19 -23 16 -21 34 2 34 8 0 19 -7 26 -15z m191 -141 c5 -15 7
-35 4 -45 -4 -11 -2 -19 4 -19 6 0 11 6 11 14 0 12 29 32 35 24 1 -2 6 -11 12
-21 9 -17 11 -17 36 3 30 24 37 9 12 -24 -10 -13 -11 -23 -4 -35 8 -12 4 -36
-15 -91 -27 -82 -42 -97 -51 -53 -4 15 -17 55 -30 88 -12 33 -26 81 -29 108
-4 26 -11 47 -17 47 -5 0 -9 7 -9 15 0 25 30 17 41 -11z m-511 -66 c0 -27 -29
-22 -36 6 -9 35 5 54 23 31 7 -11 13 -27 13 -37z m85 -9 c-4 -18 -2 -29 4 -29
6 0 17 -13 25 -29 14 -26 14 -30 -1 -42 -14 -12 -15 -11 -9 9 6 17 3 22 -11
22 -11 0 -24 -5 -29 -10 -7 -7 -17 -5 -30 5 -19 14 -19 15 3 21 18 5 21 11 16
35 -6 30 12 63 29 53 5 -3 6 -19 3 -35z m65 -159 c7 -17 10 -33 6 -37 -3 -3
-6 1 -6 9 0 9 -7 21 -15 28 -17 14 -20 30 -6 30 5 0 14 -14 21 -30z"/>
<path d="M2760 2310 c0 -6 9 -10 20 -10 11 0 20 -3 20 -8 0 -4 19 -13 42 -20
33 -11 43 -11 49 0 6 9 13 8 28 -6 21 -19 28 -46 12 -46 -5 0 -11 7 -15 15 -3
8 -10 15 -16 15 -15 0 -12 -26 6 -41 13 -10 20 -10 45 5 23 14 33 15 44 6 23
-19 -13 -48 -47 -39 -21 6 -28 4 -28 -6 0 -7 -7 -21 -16 -29 -14 -15 -13 -16
10 -16 16 0 40 -14 62 -35 32 -32 35 -39 29 -71 -5 -28 -1 -43 17 -70 34 -50
50 -40 64 40 15 79 10 93 -56 141 -39 29 -50 45 -31 45 5 0 17 7 25 16 18 18
6 54 -19 54 -8 0 -19 9 -25 20 -6 11 -23 26 -38 33 -31 16 -182 21 -182 7z"/>
<path d="M2746 2235 c-9 -14 -14 -30 -11 -35 9 -14 45 12 45 32 0 28 -17 29
-34 3z"/>
<path d="M2820 2223 c0 -20 17 -50 24 -43 2 3 2 17 -1 33 -6 30 -23 37 -23 10z"/>
<path d="M1760 2210 c0 -5 4 -10 9 -10 6 0 13 5 16 10 3 6 -1 10 -9 10 -9 0
-16 -4 -16 -10z"/>
<path d="M2018 2176 c-6 -31 35 -58 55 -37 9 11 9 14 0 18 -7 3 -13 13 -13 24
0 29 -37 25 -42 -5z"/>
<path d="M2740 2167 c0 -8 7 -21 16 -28 14 -11 15 -10 12 11 -3 26 -28 41 -28
17z"/>
<path d="M1950 2149 c0 -5 5 -7 10 -4 6 3 10 8 10 11 0 2 -4 4 -10 4 -5 0 -10
-5 -10 -11z"/>
<path d="M2740 2110 c0 -5 5 -10 10 -10 6 0 10 5 10 10 0 6 -4 10 -10 10 -5 0
-10 -4 -10 -10z"/>
<path d="M1757 2064 c-11 -11 3 -24 24 -24 12 0 19 5 17 13 -5 14 -31 21 -41
11z"/>
<path d="M2760 2025 c0 -8 5 -15 10 -15 6 0 10 7 10 15 0 8 -4 15 -10 15 -5 0
-10 -7 -10 -15z"/>
<path d="M1906 2011 c-7 -11 22 -23 35 -15 5 3 7 10 4 15 -8 12 -32 12 -39 0z"/>
<path d="M2067 2013 c-13 -13 -6 -28 18 -39 31 -15 38 -7 18 22 -16 25 -25 29
-36 17z"/>
<path d="M2820 1960 c0 -6 7 -22 16 -35 14 -21 24 -25 70 -25 29 0 56 5 59 10
3 6 -5 10 -19 10 -14 0 -28 5 -31 10 -3 6 -17 10 -29 10 -13 0 -29 7 -36 15
-14 17 -30 20 -30 5z"/>
<path d="M2171 1941 c-8 -5 -20 -7 -27 -4 -6 2 -15 0 -19 -6 -13 -21 25 -23
51 -2 26 21 22 29 -5 12z"/>
<path d="M1277 1924 c-3 -4 -2 -14 3 -24 11 -21 2 -60 -14 -60 -7 0 -17 5 -23
11 -17 17 -132 23 -181 10 -49 -14 -104 -59 -127 -104 -22 -43 -30 -133 -16
-183 14 -53 56 -107 105 -134 30 -18 54 -22 117 -22 43 0 79 -2 79 -4 0 -3
-17 -23 -37 -46 -21 -22 -37 -46 -35 -53 1 -8 -11 -21 -27 -31 -17 -10 -28
-21 -25 -26 3 -4 1 -8 -3 -8 -5 0 -9 -9 -9 -19 0 -17 5 -16 38 11 21 16 38 33
38 36 0 4 16 18 35 31 38 26 45 41 18 41 -22 0 -12 9 16 15 23 4 51 28 51 43
0 6 14 16 30 24 32 14 38 24 18 31 -10 3 -9 9 4 23 9 11 23 37 30 59 9 27 19
40 31 39 21 -2 21 8 1 71 -24 71 -43 113 -54 120 -6 4 -8 16 -4 29 3 15 -2 28
-15 40 -13 12 -21 31 -21 53 0 31 -9 41 -23 27z m-61 -159 c14 -9 35 -37 46
-62 45 -101 -21 -203 -131 -203 -53 0 -116 56 -127 114 -7 43 7 98 35 130 40
46 124 56 177 21z"/>
<path d="M2598 1889 c-10 -5 -18 -14 -18 -19 0 -17 30 -11 52 10 21 19 21 20
2 20 -10 0 -27 -5 -36 -11z"/>
<path d="M2520 1879 c0 -5 5 -7 10 -4 6 3 10 8 10 11 0 2 -4 4 -10 4 -5 0 -10
-5 -10 -11z"/>
<path d="M2616 1829 c-26 -21 -53 -36 -62 -32 -7 3 -14 0 -14 -6 0 -6 5 -11
10 -11 16 0 12 -14 -14 -53 -22 -32 -23 -37 -10 -62 8 -15 14 -40 14 -55 0
-36 23 -90 55 -128 14 -17 37 -57 51 -89 50 -111 86 -188 97 -201 8 -11 12
-11 18 0 6 9 9 5 9 -12 0 -57 21 -101 52 -114 17 -8 37 -26 45 -42 26 -54 42
-78 76 -114 19 -19 38 -45 41 -58 11 -34 48 -54 77 -43 25 9 18 16 -26 23 -11
2 -21 12 -24 23 -2 11 -14 32 -27 48 -13 15 -21 34 -17 43 3 8 -1 22 -9 32 -8
9 -27 38 -41 64 -23 40 -25 50 -16 72 16 35 -8 69 -64 94 -38 17 -45 25 -60
73 -10 30 -30 66 -44 81 -35 36 -21 50 43 46 48 -3 49 -4 55 -41 6 -41 13 -51
27 -46 6 3 4 21 -5 48 l-15 44 50 43 c58 51 85 109 80 175 l-3 44 -65 6 c-80
7 -130 1 -137 -17 -10 -26 6 -62 31 -68 19 -5 22 -11 18 -32 -4 -20 -1 -25 9
-22 8 3 13 17 12 32 -1 22 2 26 23 26 39 0 27 -38 -21 -72 -49 -34 -91 -35
-136 -5 -31 21 -34 27 -31 68 1 24 4 54 7 67 4 15 1 22 -9 22 -10 0 -12 7 -8
23 10 41 32 64 73 77 36 12 45 11 90 -8 l51 -21 24 26 c31 33 30 37 -8 65 -29
20 -46 23 -128 24 l-96 1 -48 -38z m104 -500 c0 -10 -4 -19 -10 -19 -5 0 -10
12 -10 26 0 14 4 23 10 19 6 -3 10 -15 10 -26z m138 -201 c-4 -27 -28 -36 -28
-10 0 20 8 32 22 32 5 0 8 -10 6 -22z"/>
<path d="M146 1848 c-3 -7 -7 -42 -10 -78 -3 -36 -11 -117 -17 -180 -17 -179
-19 -165 20 -168 18 -2 38 1 43 6 5 5 13 58 16 117 4 60 12 110 17 112 6 2 24
-27 40 -64 62 -145 77 -168 110 -168 27 0 33 7 61 60 16 33 40 86 53 118 13
31 27 57 31 57 4 0 13 -53 21 -117 l14 -118 45 0 c52 0 49 -17 30 160 -6 61
-13 137 -16 170 -9 103 -10 105 -50 105 -34 0 -36 -3 -65 -67 -58 -129 -114
-243 -120 -243 -3 0 -26 46 -50 103 -80 186 -90 202 -132 205 -24 2 -39 -1
-41 -10z"/>
<path d="M2540 1844 c0 -8 5 -12 10 -9 6 3 10 10 10 16 0 5 -4 9 -10 9 -5 0
-10 -7 -10 -16z"/>
<path d="M3262 1643 l3 -218 130 0 130 0 0 35 0 35 -82 3 -83 3 -2 177 -3 177
-48 3 -47 3 2 -218z"/>
<path d="M3812 1643 l3 -218 40 0 40 0 3 218 2 217 -45 0 -45 0 2 -217z"/>
<path d="M2485 1770 c-4 -6 -21 -8 -42 -4 -28 5 -35 4 -31 -7 6 -18 85 -24
104 -8 7 6 11 15 8 20 -7 12 -31 11 -39 -1z"/>
<path d="M2345 1713 c-33 -7 -65 -25 -59 -35 3 -4 -1 -15 -9 -22 -9 -9 -17
-49 -21 -111 -4 -54 -12 -107 -17 -119 -12 -28 -36 -250 -32 -301 4 -64 15
-115 24 -121 5 -3 9 -16 9 -30 0 -13 4 -24 9 -24 5 0 7 36 5 80 -3 65 -1 80
10 80 18 0 26 -20 15 -41 -4 -8 -4 -21 0 -28 6 -8 11 3 15 30 7 47 28 114 39
125 4 4 7 18 7 30 0 13 4 25 9 28 4 3 11 24 14 46 3 23 16 65 30 93 35 74 47
114 47 158 0 52 -16 50 -24 -3 -4 -23 -17 -69 -30 -102 -12 -34 -31 -88 -41
-121 -9 -33 -21 -69 -25 -80 -5 -11 -11 -28 -14 -37 -4 -15 -10 -16 -36 -7
-37 13 -40 44 -9 83 18 23 20 31 10 52 -14 32 -14 31 9 37 11 3 20 10 20 16 0
6 -9 19 -20 28 -11 10 -20 23 -20 29 0 6 9 14 20 17 16 4 20 14 20 44 0 21 7
51 15 67 19 36 19 46 0 46 -8 0 -15 8 -15 19 0 20 39 36 54 21 5 -5 18 -5 33
1 20 7 25 5 35 -16 15 -33 22 -32 54 11 25 33 26 36 11 52 -16 15 -18 15 -31
-3 -14 -19 -15 -19 -33 -2 -19 17 -38 19 -78 10z m-55 -564 c0 -5 -9 -9 -20
-9 -19 0 -26 11 -14 23 8 8 34 -3 34 -14z"/>
<path d="M1550 1505 c-7 -8 -21 -30 -30 -48 -10 -17 -25 -31 -34 -31 -10 1
-16 -6 -16 -17 0 -10 6 -19 13 -18 15 0 97 98 97 116 0 17 -15 16 -30 -2z"/>
<path d="M1400 1343 c0 -15 -45 -59 -72 -71 -16 -6 -28 -16 -28 -22 0 -5 -6
-10 -14 -10 -8 0 -22 -10 -31 -22 -13 -19 -23 -23 -66 -21 -72 3 -91 -9 -83
-52 5 -27 3 -34 -12 -37 -17 -3 -16 -5 6 -26 13 -12 31 -22 40 -22 9 0 35 -14
58 -31 23 -17 50 -29 59 -27 14 3 7 11 -25 33 -31 20 -42 34 -41 49 2 12 -2
31 -9 43 -16 28 -15 33 3 33 8 0 15 4 15 9 0 16 54 20 77 5 16 -10 23 -26 25
-56 4 -55 22 -56 26 -1 2 23 10 47 18 53 23 20 16 30 -19 30 -50 0 -50 9 -1
46 96 74 122 104 89 104 -8 0 -15 -3 -15 -7z"/>
<path d="M2876 1260 c8 -31 24 -50 24 -29 0 8 -7 24 -16 35 -14 18 -15 18 -8
-6z"/>
<path d="M1022 1224 c-12 -8 -22 -23 -22 -33 0 -27 51 -114 61 -104 4 4 4 35
0 68 -5 33 -6 66 -4 73 7 17 -8 15 -35 -4z"/>
<path d="M1447 1193 c-11 -10 -8 -111 3 -118 6 -3 13 1 16 9 8 21 24 20 39 -1
7 -9 17 -13 24 -9 9 6 9 11 0 22 -9 12 -9 20 1 39 12 22 11 27 -5 45 -17 19
-64 27 -78 13z m50 -49 c-9 -9 -28 6 -21 18 4 6 10 6 17 -1 6 -6 8 -13 4 -17z"/>
<path d="M1627 1193 c-4 -3 -7 -30 -7 -60 0 -49 2 -54 26 -63 19 -7 31 -7 40
1 17 14 9 29 -17 29 -26 0 -24 16 4 24 20 6 20 7 5 17 -24 13 -23 25 3 32 12
3 18 10 14 16 -7 12 -58 15 -68 4z"/>
<path d="M2382 1177 c-35 -37 -25 -79 26 -106 19 -10 28 -9 55 6 41 24 48 65
16 99 -29 31 -69 31 -97 1z m66 -16 c8 -4 12 -19 10 -32 -2 -18 -9 -24 -28
-24 -19 0 -26 6 -28 24 -3 20 11 41 28 41 3 0 11 -4 18 -9z"/>
<path d="M2590 1173 c-25 -32 -20 -69 13 -95 30 -24 49 -22 82 8 22 21 26 31
21 56 -12 61 -78 79 -116 31z m76 -17 c15 -12 17 -18 8 -33 -6 -10 -21 -18
-34 -18 -13 0 -28 8 -34 18 -9 15 -7 21 8 33 11 8 23 14 26 14 3 0 15 -6 26
-14z"/>
<path d="M2934 1116 c-3 -8 2 -29 12 -45 19 -33 41 -43 29 -13 -4 9 -10 27
-12 40 -7 28 -21 38 -29 18z"/>
<path d="M1090 1047 c0 -14 31 -47 43 -47 17 0 5 29 -18 44 -20 13 -25 14 -25
3z"/>
<path d="M2329 981 c24 -23 37 -29 44 -22 15 15 -9 38 -48 47 l-30 6 34 -31z"/>
<path d="M1302 979 c3 -8 14 -13 26 -11 24 4 39 -15 23 -31 -20 -20 -12 -26
26 -20 44 7 112 50 92 57 -8 3 -32 5 -54 4 -22 -1 -57 3 -79 7 -31 6 -38 5
-34 -6z"/>
<path d="M2980 982 c0 -7 7 -20 15 -28 8 -9 15 -24 15 -35 0 -10 7 -19 15 -19
8 0 15 6 15 13 0 17 -59 86 -60 69z"/>
<path d="M1150 956 c0 -8 14 -25 31 -37 26 -19 35 -20 51 -10 15 9 23 9 34 0
8 -6 17 -9 21 -6 7 8 -49 54 -57 47 -3 -3 -4 -8 -2 -12 3 -12 -26 -10 -33 2
-3 5 -15 15 -26 20 -15 8 -19 7 -19 -4z"/>
<path d="M2455 935 c-5 -2 -23 -6 -40 -10 -25 -6 -27 -8 -13 -16 19 -10 88 -7
88 4 0 4 0 12 0 17 0 10 -15 12 -35 5z"/>
<path d="M2184 890 c0 -11 6 -20 12 -20 7 0 10 8 7 20 -3 11 -8 20 -12 20 -4
0 -7 -9 -7 -20z"/>
<path d="M2280 896 c0 -9 -8 -16 -18 -16 -10 0 -27 -7 -38 -16 -18 -15 -18
-15 11 -9 36 8 72 39 56 49 -6 4 -11 0 -11 -8z"/>
<path d="M2052 868 c3 -7 13 -15 24 -17 16 -3 17 -1 5 13 -16 19 -34 21 -29 4z"/>
<path d="M3200 844 c0 -8 5 -12 10 -9 6 4 8 11 5 16 -9 14 -15 11 -15 -7z"/>
</g>
</svg>
